<?xml version="1.0" encoding="UTF-8"?>
<svg width="122px" height="25px" viewBox="0 0 122 25" version="1.1" xmlns="http://www.w3.org/2000/svg" xmlns:xlink="http://www.w3.org/1999/xlink">
    <!-- Generator: Sketch 41 (35326) - http://www.bohemiancoding.com/sketch -->
    <title>SHAPY</title>
    <desc>Created with Sketch.</desc>
    <defs>
        <linearGradient x1="-15.5242195%" y1="50%" x2="125.655274%" y2="50%" id="linearGradient-1">
            <stop stop-color="#F4E00C" offset="0%"></stop>
            <stop stop-color="#30F9AC" offset="71.2186021%"></stop>
            <stop stop-color="#00FFDF" offset="100%"></stop>
        </linearGradient>
    </defs>
    <g id="Page-1" stroke="none" stroke-width="1" fill="none" fill-rule="evenodd">
        <path d="M0.109375,16.421875 L6.84375,16 C6.98958406,17.0937555 7.28645609,17.9270805 7.734375,18.5 C8.46354531,19.427088 9.50520156,19.890625 10.859375,19.890625 C11.8697967,19.890625 12.6484348,19.6536482 13.1953125,19.1796875 C13.7421902,18.7057268 14.015625,18.1562531 14.015625,17.53125 C14.015625,16.937497 13.7552109,16.4062523 13.234375,15.9375 C12.7135391,15.4687477 11.5052178,15.0260437 9.609375,14.609375 C6.50519281,13.9114548 4.29167328,12.9843808 2.96875,11.828125 C1.63541,10.6718692 0.96875,9.19792563 0.96875,7.40625 C0.96875,6.22916078 1.30989242,5.11719273 1.9921875,4.0703125 C2.67448258,3.02343227 3.70051398,2.20052383 5.0703125,1.6015625 C6.44011102,1.00260117 8.31769641,0.703125 10.703125,0.703125 C13.630223,0.703125 15.8619715,1.24739039 17.3984375,2.3359375 C18.9349035,3.42448461 19.8489569,5.15623813 20.140625,7.53125 L13.46875,7.921875 C13.2916658,6.89061984 12.9192737,6.14062734 12.3515625,5.671875 C11.7838513,5.20312266 11.000005,4.96875 10,4.96875 C9.17707922,4.96875 8.55729375,5.14322742 8.140625,5.4921875 C7.72395625,5.84114758 7.515625,6.2656225 7.515625,6.765625 C7.515625,7.13021016 7.68749828,7.45833187 8.03125,7.75 C8.364585,8.05208484 9.15624375,8.33333203 10.40625,8.59375 C13.5000155,9.26042 15.7161391,9.93489242 17.0546875,10.6171875 C18.3932359,11.2994826 19.3671845,12.1458283 19.9765625,13.15625 C20.5859405,14.1666717 20.890625,15.2968687 20.890625,16.546875 C20.890625,18.0156323 20.4843791,19.3697855 19.671875,20.609375 C18.8593709,21.8489645 17.7239656,22.7890593 16.265625,23.4296875 C14.8072844,24.0703157 12.9687611,24.390625 10.75,24.390625 C6.85414719,24.390625 4.1562575,23.6406325 2.65625,22.140625 C1.1562425,20.6406175 0.307292656,18.7343866 0.109375,16.421875 Z M24.484375,1.09375 L31.5625,1.09375 L31.5625,9.109375 L39.296875,9.109375 L39.296875,1.09375 L46.40625,1.09375 L46.40625,24 L39.296875,24 L39.296875,14.734375 L31.5625,14.734375 L31.5625,24 L24.484375,24 L24.484375,1.09375 Z M65.203125,20.21875 L57.140625,20.21875 L56.03125,24 L48.796875,24 L57.40625,1.09375 L65.125,1.09375 L73.734375,24 L66.328125,24 L65.203125,20.21875 Z M63.71875,15.265625 L61.1875,7.03125 L58.671875,15.265625 L63.71875,15.265625 Z M75.96875,1.09375 L87.734375,1.09375 C90.2968878,1.09375 92.2161395,1.70311891 93.4921875,2.921875 C94.7682355,4.14063109 95.40625,5.87498875 95.40625,8.125 C95.40625,10.4375116 94.7109445,12.2447852 93.3203125,13.546875 C91.9296805,14.8489648 89.8073059,15.5 86.953125,15.5 L83.078125,15.5 L83.078125,24 L75.96875,24 L75.96875,1.09375 Z M83.078125,10.859375 L84.8125,10.859375 C86.1770902,10.859375 87.1354139,10.6223982 87.6875,10.1484375 C88.2395861,9.6744768 88.515625,9.06771203 88.515625,8.328125 C88.515625,7.60937141 88.2760441,7.0000025 87.796875,6.5 C87.3177059,5.9999975 86.4166733,5.75 85.09375,5.75 L83.078125,5.75 L83.078125,10.859375 Z M96.796875,1.09375 L104.65625,1.09375 L109.28125,8.828125 L113.90625,1.09375 L121.71875,1.09375 L112.8125,14.40625 L112.8125,24 L105.71875,24 L105.71875,14.40625 L96.796875,1.09375 Z" id="SHAPY" fill="url(#linearGradient-1)"></path>
    </g>
</svg>